<svg xmlns="http://www.w3.org/2000/svg" viewBox="0 0 32 32">
  <defs>
    <linearGradient id="g" x1="0" y1="0" x2="1" y2="1">
      <stop offset="0%" stop-color="#6366f1"/>
      <stop offset="100%" stop-color="#8b5cf6"/>
    </linearGradient>
  </defs>
  <rect width="32" height="32" rx="7" fill="url(#g)"/>
  <!-- laptop screen -->
  <rect x="5" y="7" width="22" height="14" rx="1.5" fill="none" stroke="white" stroke-width="1.5"/>
  <rect x="7" y="9" width="18" height="10" rx="0.5" fill="rgba(255,255,255,0.15)"/>
  <!-- keyboard base -->
  <path d="M3 21.5 C3 21 4 21 5 21 L27 21 C28 21 29 21 29 21.5 L28 24.5 C28 25 27.5 25.5 27 25.5 L5 25.5 C4.5 25.5 4 25 4 24.5 Z" fill="none" stroke="white" stroke-width="1.3"/>
  <!-- screen content: mini gantt bars -->
  <rect x="9" y="11" width="6" height="1.5" rx="0.5" fill="#818cf8" opacity="0.9"/>
  <rect x="15" y="11" width="4" height="1.5" rx="0.5" fill="#34d399" opacity="0.9"/>
  <rect x="9" y="14" width="4" height="1.5" rx="0.5" fill="#f472b6" opacity="0.9"/>
  <rect x="13" y="14" width="8" height="1.5" rx="0.5" fill="#fbbf24" opacity="0.9"/>
</svg>
